<?xml version="1.0" standalone="no"?>
<!DOCTYPE svg PUBLIC "-//W3C//DTD SVG 20010904//EN"
 "http://www.w3.org/TR/2001/REC-SVG-20010904/DTD/svg10.dtd">
<svg version="1.0" xmlns="http://www.w3.org/2000/svg"
 width="400.000000pt" height="400.000000pt" viewBox="0 0 400.000000 400.000000"
 preserveAspectRatio="xMidYMid meet">
<metadata>
Created by potrace 1.11, written by Peter Selinger 2001-2013
</metadata>
<g transform="translate(0.000000,400.000000) scale(0.100000,-0.100000)"
fill="#000000" stroke="none">
<path d="M2000 3913 c0 -5 -21 -8 -47 -8 -27 0 -53 -3 -60 -8 -6 -4 -14 -3
-18 3 -3 5 -12 10 -18 10 -8 0 -8 -3 1 -9 10 -6 9 -10 -7 -14 -15 -4 -21 0
-22 11 0 14 -2 13 -8 -2 -5 -13 -10 -16 -14 -9 -5 8 -15 8 -34 -2 -15 -8 -30
-12 -35 -9 -4 3 -8 0 -8 -7 0 -8 -4 -8 -16 1 -12 11 -15 11 -12 -1 2 -9 -4
-13 -16 -11 -13 2 -16 -1 -10 -10 6 -10 4 -10 -9 1 -14 11 -18 11 -23 -3 -3
-9 -10 -13 -15 -10 -5 3 -9 0 -9 -6 0 -6 -4 -9 -9 -6 -5 3 -21 -1 -37 -9 -15
-7 -31 -12 -36 -9 -4 3 -5 -3 -1 -12 4 -12 3 -15 -5 -10 -7 4 -12 2 -12 -5 0
-8 -4 -8 -15 1 -13 11 -14 10 -9 -6 4 -10 4 -16 0 -12 -11 9 -35 -14 -28 -27
3 -5 -5 -1 -19 10 -15 13 -19 14 -11 3 14 -18 6 -27 -21 -23 -13 3 -15 0 -8
-9 7 -8 4 -15 -9 -24 -17 -10 -18 -9 -13 6 4 13 3 13 -10 -3 -8 -11 -13 -24
-10 -30 4 -5 3 -7 -2 -3 -4 4 -18 -3 -30 -16 -18 -19 -25 -22 -35 -13 -10 9
-11 9 -6 0 7 -13 -31 -58 -49 -58 -5 0 -9 -10 -9 -23 1 -17 -2 -20 -11 -12
-10 8 -13 6 -11 -7 0 -10 -4 -17 -11 -16 -8 2 -10 -4 -6 -14 5 -12 2 -15 -9
-10 -12 4 -14 1 -11 -14 4 -15 2 -18 -13 -12 -17 6 -17 5 -5 -11 12 -15 12
-17 0 -14 -8 2 -13 -3 -12 -9 2 -7 -2 -13 -7 -13 -5 0 -9 -3 -9 -7 4 -22 -2
-33 -13 -27 -8 5 -9 2 -5 -9 3 -10 2 -17 -4 -17 -6 0 -7 -4 -4 -10 3 -5 1 -10
-5 -10 -6 0 -8 -4 -5 -10 3 -5 1 -10 -4 -10 -6 0 -10 -6 -8 -12 1 -7 -3 -12
-9 -11 -7 1 -9 -8 -6 -22 3 -16 0 -25 -9 -25 -7 0 -9 -3 -6 -7 4 -3 -1 -12
-11 -20 -9 -8 -11 -12 -4 -8 6 3 12 1 12 -4 0 -6 -6 -11 -12 -11 -10 0 -10 -2
0 -9 11 -7 11 -9 -1 -14 -9 -3 -12 -15 -9 -37 3 -18 1 -30 -4 -27 -5 3 -10 -6
-11 -20 -1 -19 1 -22 8 -12 6 9 9 10 9 2 0 -6 -4 -14 -9 -17 -11 -7 -9 -25 3
-45 6 -9 5 -12 -1 -8 -6 4 -13 0 -16 -7 -3 -8 -1 -17 6 -20 9 -3 8 -5 -1 -5
-10 -1 -10 -6 -2 -21 9 -16 8 -20 -7 -21 -16 0 -16 -1 2 -9 11 -5 14 -9 8 -9
-9 -1 -10 -8 -3 -26 6 -16 6 -25 0 -25 -6 0 -10 5 -10 12 0 6 -3 8 -6 5 -4 -4
-3 -12 3 -19 14 -19 14 -60 0 -77 -9 -12 -9 -13 1 -7 8 5 12 0 12 -14 0 -14
-4 -19 -12 -14 -10 6 -10 4 0 -8 10 -12 10 -17 1 -20 -8 -3 -9 -9 -3 -19 11
-18 12 -50 2 -71 -5 -11 -5 -18 2 -18 12 0 9 -22 -5 -32 -6 -5 -5 -8 4 -8 10
0 11 -3 2 -14 -8 -9 -8 -16 -2 -20 11 -7 3 -37 -13 -48 -7 -5 -5 -8 5 -8 9 0
16 -7 16 -15 0 -8 -4 -15 -9 -15 -5 0 -4 -9 1 -19 8 -14 7 -22 -5 -32 -14 -12
-14 -14 2 -26 11 -8 13 -13 5 -13 -11 0 -11 -3 0 -17 8 -9 9 -14 4 -11 -7 5
-10 -16 -9 -60 1 -37 3 -67 4 -67 1 0 3 -8 5 -18 2 -9 -1 -15 -5 -12 -5 3 -8
-11 -6 -32 2 -38 -26 -84 -39 -62 -4 5 -11 7 -16 4 -5 -4 -9 0 -9 7 0 9 -3 9
-10 -2 -8 -13 -10 -12 -10 4 0 11 -3 17 -6 14 -3 -3 -17 6 -31 20 -22 22 -24
28 -13 46 12 19 11 20 -3 8 -10 -9 -17 -10 -22 -2 -3 5 -3 10 1 10 3 0 1 6 -5
14 -6 7 -9 21 -5 30 4 10 0 18 -11 22 -13 5 -14 9 -3 15 11 7 11 9 -1 9 -11 0
-11 3 -1 15 11 13 10 14 -6 8 -17 -6 -18 -5 -4 12 8 10 10 16 3 12 -13 -8 -31
39 -19 50 3 4 -2 15 -11 26 -10 11 -13 18 -7 14 6 -3 11 0 11 7 0 8 -7 12 -15
8 -9 -3 -13 -1 -9 5 4 6 0 16 -8 23 -8 7 -15 22 -15 34 0 12 -9 25 -22 31 -13
6 -22 18 -22 27 1 11 -4 14 -14 10 -11 -4 -14 -1 -9 12 4 10 3 15 -3 11 -6 -3
-10 -1 -10 5 0 6 -4 8 -10 5 -5 -3 -10 1 -10 9 0 9 -5 16 -11 16 -5 0 -7 5 -3
12 4 6 3 8 -3 5 -5 -3 -17 3 -26 13 -11 14 -12 20 -4 24 7 3 2 3 -10 1 -16 -5
-24 1 -34 25 -8 16 -18 30 -23 30 -4 0 -3 7 4 15 10 12 10 15 -1 15 -11 0 -11
2 1 10 10 6 11 10 3 10 -7 0 -13 4 -13 10 0 5 8 7 17 4 16 -5 16 -4 0 6 -14 9
-16 15 -6 26 6 8 7 14 2 14 -5 0 -9 9 -10 21 -2 18 0 19 14 7 14 -11 15 -11 8
2 -5 8 -10 20 -11 25 -1 6 -6 19 -10 29 -5 14 -4 17 4 12 9 -5 9 -1 2 18 -8
21 -7 24 8 20 15 -5 14 -4 -1 6 -15 10 -16 14 -5 28 10 12 10 14 1 8 -8 -4
-13 -2 -13 5 0 10 -37 49 -46 49 -2 0 -1 -7 3 -16 5 -13 2 -15 -13 -7 -23 10
-45 10 -63 -1 -8 -5 -16 -3 -22 5 -7 11 -12 10 -26 -5 -17 -19 -17 -19 2 -6
20 14 20 14 2 -7 -11 -12 -16 -26 -13 -32 3 -5 0 -12 -6 -14 -10 -4 -10 -6 0
-6 6 -1 12 -6 12 -12 0 -5 -4 -8 -9 -4 -5 3 -13 1 -16 -5 -4 -6 -3 -10 2 -9
22 4 25 -3 7 -17 -10 -8 -13 -13 -6 -9 6 3 12 1 12 -4 0 -17 -20 -13 -27 5 -3
8 -11 13 -19 10 -13 -5 -38 17 -28 26 2 3 -2 8 -11 12 -10 3 -14 2 -9 -5 4 -7
-1 -10 -12 -7 -10 2 -28 -7 -41 -20 -13 -13 -28 -20 -33 -17 -6 4 -9 1 -8 -7
2 -7 -2 -12 -9 -11 -7 2 -10 -4 -7 -12 4 -8 1 -15 -6 -15 -6 0 -8 -4 -5 -10 3
-5 -2 -10 -12 -10 -15 0 -14 -2 5 -16 12 -8 22 -22 22 -29 0 -8 12 -18 27 -21
25 -7 25 -8 8 -15 -20 -7 -20 -8 0 -8 16 -1 17 -3 5 -11 -9 -5 -19 -5 -27 2
-7 6 -13 6 -13 1 0 -5 -18 -9 -40 -8 -32 1 -43 -4 -56 -23 -9 -14 -11 -22 -6
-18 6 3 13 2 17 -4 3 -5 2 -10 -4 -10 -6 0 -9 -17 -7 -42 3 -26 0 -46 -7 -50
-8 -5 -6 -8 7 -8 12 0 16 -5 13 -15 -7 -15 6 -29 17 -18 10 10 55 10 49 0 -3
-5 4 -4 16 2 17 10 21 9 21 -4 0 -15 1 -15 16 -1 14 14 17 14 30 1 17 -17 28
-20 20 -6 -3 5 1 11 9 15 8 3 15 1 15 -5 0 -6 6 -7 12 -3 18 11 48 12 48 2 0
-5 9 -4 20 2 11 6 20 7 20 3 0 -4 11 -9 25 -9 16 -1 22 2 18 10 -4 6 1 5 10
-3 19 -15 23 -26 5 -15 -7 4 -8 3 -4 -4 4 -7 14 -12 22 -12 9 0 12 -5 8 -12
-5 -8 -2 -9 11 -4 16 6 16 4 4 -11 -8 -9 -9 -14 -3 -10 13 8 54 -24 54 -42 0
-7 3 -10 8 -8 4 2 17 -6 30 -19 12 -13 19 -24 15 -24 -4 0 0 -5 10 -11 9 -5
17 -19 17 -30 0 -14 4 -18 13 -13 7 5 6 0 -3 -11 -9 -11 -10 -16 -2 -11 11 6
17 -5 13 -26 0 -5 4 -8 10 -8 5 0 8 -4 4 -9 -3 -5 -1 -12 4 -16 5 -3 8 -14 6
-25 -2 -11 0 -20 6 -20 5 0 9 -5 9 -11 0 -5 -6 -7 -12 -4 -7 4 -6 1 3 -7 9 -7
14 -19 12 -25 -3 -7 1 -13 7 -13 9 0 9 -5 -1 -17 -10 -11 -10 -14 -1 -9 12 7
16 -4 13 -31 -1 -7 3 -13 10 -13 7 0 9 -10 7 -25 -4 -17 1 -29 18 -42 23 -17
35 -41 14 -28 -16 10 -11 -1 7 -16 14 -12 16 -12 8 0 -5 10 -4 12 3 7 7 -4 12
-14 12 -22 0 -8 7 -14 15 -14 8 0 15 -6 15 -12 0 -9 4 -8 10 2 7 10 10 11 10
2 0 -7 12 -18 28 -25 15 -6 33 -19 40 -27 10 -13 11 -12 5 5 -6 17 -4 18 9 8
8 -7 19 -9 24 -5 4 4 2 -2 -6 -12 -14 -18 -14 -19 9 -6 22 11 23 11 17 -6 -6
-15 -5 -16 5 -7 10 10 17 9 33 -5 20 -16 20 -16 6 3 -15 19 -14 19 10 4 14 -8
31 -19 38 -23 9 -5 9 -12 2 -27 -8 -14 -7 -19 2 -19 10 0 9 -3 -1 -9 -12 -8
-12 -12 -2 -24 9 -12 9 -16 -1 -21 -10 -5 -10 -7 -1 -12 9 -4 10 -11 3 -24 -7
-13 -6 -20 3 -23 9 -4 9 -6 0 -6 -7 -1 -10 -8 -6 -17 3 -9 0 -20 -8 -25 -11
-7 -11 -9 2 -9 16 0 19 -36 4 -59 -3 -6 -1 -11 6 -11 7 0 4 -7 -7 -16 -10 -8
-14 -13 -8 -10 7 3 14 -1 17 -8 3 -8 1 -17 -6 -20 -9 -5 -9 -7 0 -12 9 -4 10
-11 3 -25 -8 -14 -7 -19 2 -19 10 0 10 -2 0 -9 -15 -9 -15 -20 -1 -38 7 -7 5
-13 -3 -16 -8 -4 -9 -8 -3 -14 15 -12 17 -33 3 -33 -9 0 -8 -4 2 -10 11 -7 11
-10 2 -10 -7 0 -10 -5 -7 -10 4 -6 1 -18 -6 -26 -7 -8 -8 -14 -3 -13 21 4 28
-2 14 -11 -11 -7 -11 -10 -2 -10 9 0 10 -5 2 -19 -7 -14 -6 -21 3 -24 9 -4 9
-6 0 -6 -7 -1 -10 -8 -6 -17 3 -9 0 -20 -8 -25 -12 -7 -11 -9 1 -9 12 0 16
-10 15 -37 0 -21 -4 -41 -10 -45 -7 -5 -7 -10 0 -15 15 -12 17 -33 3 -33 -9 0
-8 -4 2 -10 11 -7 11 -10 2 -10 -7 0 -10 -5 -7 -10 4 -6 1 -18 -6 -26 -7 -8
-8 -14 -3 -13 21 4 28 -2 14 -11 -11 -7 -11 -10 -2 -10 9 0 10 -5 2 -19 -7
-14 -6 -21 3 -24 9 -4 9 -6 0 -6 -7 -1 -10 -8 -6 -17 3 -9 0 -20 -8 -25 -12
-7 -11 -9 2 -9 16 0 19 -25 6 -47 -4 -6 -2 -15 4 -19 8 -4 7 -9 -2 -15 -9 -6
-10 -12 -4 -16 15 -12 17 -33 3 -33 -9 0 -8 -4 2 -10 11 -7 11 -10 2 -10 -7 0
-10 -5 -7 -10 4 -6 1 -18 -6 -26 -7 -8 -8 -14 -3 -13 21 4 28 -2 14 -11 -11
-7 -11 -10 -2 -10 9 0 10 -5 2 -19 -7 -14 -6 -21 3 -24 9 -4 9 -6 0 -6 -7 -1
-10 -8 -6 -17 3 -9 0 -20 -8 -25 -12 -7 -11 -9 1 -9 12 0 16 -10 15 -37 0 -21
-4 -41 -10 -45 -7 -5 -7 -10 0 -15 15 -12 17 -33 2 -33 -8 0 -7 -4 3 -10 11
-7 11 -10 2 -10 -7 0 -10 -5 -7 -10 4 -6 1 -18 -6 -26 -7 -8 -8 -14 -3 -13 21
4 28 -2 14 -11 -11 -7 -11 -10 -2 -10 9 0 10 -5 2 -19 -7 -14 -6 -21 3 -24 9
-4 9 -6 0 -6 -7 -1 -10 -8 -6 -17 3 -9 0 -20 -8 -25 -11 -7 -11 -9 2 -9 16 0
19 -36 5 -58 -5 -9 22 -35 42 -39 6 -2 20 8 30 22 11 13 23 21 27 17 5 -4 6
-2 2 3 -8 14 3 28 33 43 14 7 16 10 6 7 -16 -5 -17 -3 -6 10 7 8 16 13 20 10
10 -6 60 52 52 61 -4 4 1 4 11 1 10 -4 16 -3 13 2 -3 4 4 17 16 27 14 12 18
14 13 4 -8 -13 -7 -13 8 -1 11 9 17 10 17 2 0 -6 7 -11 15 -11 8 0 15 -4 15
-9 0 -6 17 -27 37 -48 20 -21 28 -27 17 -13 l-19 25 23 -19 c12 -11 22 -27 22
-38 0 -16 10 -22 32 -19 4 0 10 -8 13 -19 4 -11 13 -20 21 -20 8 0 14 -7 14
-16 0 -8 4 -12 10 -9 5 3 10 1 10 -5 0 -6 4 -9 9 -6 5 4 12 0 14 -6 4 -10 6
-9 6 1 1 11 4 11 17 1 8 -8 14 -9 13 -4 -4 22 2 34 17 34 9 0 12 5 8 12 -5 7
-2 9 8 6 8 -4 21 -2 29 4 11 8 10 9 -3 4 -27 -8 -21 13 7 26 13 6 22 15 19 19
-3 5 2 9 10 9 8 0 18 5 22 12 5 7 2 9 -7 4 -8 -4 -3 2 11 13 14 11 29 21 33
21 5 0 6 4 3 9 -3 5 5 12 19 15 14 4 25 13 25 22 0 10 8 7 25 -12 14 -15 25
-24 25 -20 0 4 7 1 15 -8 8 -8 15 -20 15 -26 0 -6 4 -8 10 -5 5 3 10 1 10 -5
0 -6 4 -8 10 -5 6 3 7 -1 4 -9 -4 -11 0 -16 11 -16 9 0 13 -4 10 -10 -3 -5 -1
-10 5 -10 15 0 40 -25 40 -40 0 -6 5 -8 11 -4 8 4 9 -1 4 -17 -5 -19 -4 -21 5
-9 9 11 13 12 17 2 2 -6 9 -10 14 -6 5 3 9 0 9 -7 0 -8 7 -6 19 5 12 11 25 15
33 10 7 -4 10 -4 6 1 -4 4 4 16 17 27 14 11 22 25 18 31 -4 6 0 8 10 4 9 -3
16 -3 15 1 -1 4 2 15 7 25 6 15 10 16 16 5 6 -9 9 -7 9 10 0 15 9 26 25 32 14
5 25 14 25 19 0 6 8 8 18 5 14 -5 14 -4 2 5 -8 5 -12 13 -9 16 11 11 49 14 49
4 0 -6 4 -7 10 -4 5 3 10 -1 10 -9 0 -8 5 -18 12 -22 7 -4 8 -3 4 4 -5 8 -2
10 8 6 9 -3 15 -9 14 -12 -2 -19 3 -35 9 -29 9 10 53 -33 53 -51 0 -9 3 -13 6
-9 8 8 34 -18 34 -34 0 -7 3 -9 6 -6 4 4 15 -3 25 -15 11 -11 19 -17 19 -12 0
5 4 2 9 -5 8 -13 12 -12 28 5 10 11 14 13 8 4 -7 -11 -5 -11 11 3 11 9 24 14
27 10 4 -3 7 -1 7 5 0 7 -5 12 -11 12 -5 0 -8 4 -4 10 3 5 12 7 21 3 9 -3 14
0 12 8 -2 8 4 13 14 13 10 -1 14 4 11 12 -3 8 0 14 7 14 6 0 8 5 4 12 -4 7 -3
8 4 4 7 -4 12 -1 12 8 0 9 3 15 8 14 4 -1 21 10 37 26 17 16 23 26 15 21 -9
-5 -12 -5 -7 1 5 5 12 9 15 9 4 0 13 4 20 8 16 11 34 -1 25 -16 -5 -9 -3 -9 8
-1 18 15 39 -4 39 -36 0 -5 9 -10 21 -10 11 0 17 -4 14 -10 -3 -5 -1 -10 5
-10 6 0 8 -6 4 -12 -4 -7 -4 -10 1 -6 11 10 45 -10 45 -27 0 -8 7 -15 16 -15
8 0 12 -4 9 -10 -3 -5 1 -10 10 -10 9 0 14 -4 11 -9 -4 -5 2 -8 11 -7 10 2 21
-2 26 -8 5 -8 10 -7 16 3 5 7 15 10 22 7 8 -4 5 0 -5 8 -13 10 -15 16 -7 16
10 0 11 3 2 13 -8 10 -7 17 1 25 7 7 8 12 4 12 -5 0 -3 6 3 14 9 11 9 16 0 22
-8 4 -9 3 -5 -4 4 -7 2 -12 -3 -12 -12 0 -14 13 -4 24 10 10 11 139 1 153 -6
7 -4 14 3 19 8 5 10 3 4 -7 -5 -8 -4 -11 0 -6 11 9 13 57 3 51 -4 -3 -8 2 -8
11 0 10 5 13 12 9 6 -4 8 -3 5 3 -12 20 -17 104 -6 97 8 -4 8 -1 1 13 -6 11
-7 25 -2 33 5 9 5 19 -1 26 -7 8 -6 14 1 19 6 3 7 11 4 17 -4 6 -7 60 -8 119
-1 91 2 109 14 109 12 0 12 2 2 9 -7 4 -15 20 -16 35 -3 21 0 26 13 22 11 -4
10 -2 -3 9 -11 8 -14 15 -7 15 7 0 9 4 6 10 -3 5 -8 19 -10 31 -3 16 0 19 13
15 14 -5 13 -3 -2 9 -11 8 -15 15 -10 15 5 0 10 9 10 20 0 11 -5 20 -11 20 -5
0 -3 5 5 10 13 9 13 10 0 10 -13 0 -13 1 0 10 13 8 13 10 1 10 -11 0 -10 4 4
13 14 11 15 16 5 22 -9 6 -11 4 -5 -6 5 -8 5 -11 0 -7 -4 4 -8 40 -9 80 -1 54
3 77 14 86 10 9 10 11 1 6 -10 -5 -12 3 -10 40 2 25 0 48 -6 50 -5 3 -2 5 8 5
17 1 17 2 1 18 -9 9 -13 18 -8 20 10 3 9 75 -1 101 -4 10 0 12 11 8 14 -5 15
-4 4 9 -7 9 -10 18 -7 22 4 3 2 15 -4 26 -7 12 -7 17 -1 13 5 -3 13 1 16 10 4
10 2 13 -6 8 -7 -5 -9 0 -6 14 3 12 1 23 -6 26 -6 2 -2 5 8 5 20 1 20 1 0 16
-19 14 -19 14 1 15 11 0 16 3 10 8 -16 11 -19 75 -3 66 10 -6 10 -5 2 7 -9 11
-9 17 1 26 11 10 15 10 18 0 4 -9 6 -9 6 1 1 6 12 12 26 12 14 0 25 6 25 13 0
8 3 7 10 -3 8 -12 10 -12 16 3 3 9 10 17 16 17 5 0 6 -6 2 -12 -4 -7 2 -5 13
5 16 14 22 15 26 5 4 -8 6 -6 6 5 1 10 6 15 11 12 6 -3 10 -1 10 4 0 6 7 11
15 11 8 0 15 5 15 10 0 6 4 10 9 10 17 0 63 49 56 59 -6 10 8 16 29 12 5 -1 4
4 -3 12 -9 12 -8 16 6 21 15 6 15 8 3 16 -8 6 -10 10 -5 10 6 0 16 9 23 21 8
12 9 18 3 15 -7 -4 -9 -1 -5 8 3 8 12 17 21 20 11 5 12 10 5 19 -15 18 -15 29
-2 37 7 4 14 18 15 31 4 39 5 40 18 33 9 -5 9 -4 0 6 -10 11 -9 16 5 26 11 9
13 13 4 14 -7 0 -10 5 -7 10 4 6 10 8 14 5 5 -2 7 7 5 20 -1 14 2 23 7 19 5
-3 9 2 9 11 0 8 7 18 15 21 8 4 12 10 9 15 -3 5 2 12 10 15 9 3 16 13 16 21 0
8 5 11 10 8 6 -3 10 1 10 10 0 9 5 13 10 10 6 -3 10 -1 10 5 0 6 5 8 10 5 6
-3 10 -1 10 4 0 14 37 51 51 51 5 0 7 5 3 12 -5 7 -2 9 8 5 9 -3 21 0 28 6 10
9 11 9 6 0 -8 -15 3 -17 23 -4 9 6 22 6 32 0 12 -6 20 -5 24 1 9 14 27 1 18
-13 -3 -7 3 -4 14 6 14 13 23 15 28 7 5 -8 11 -8 21 1 13 11 19 5 14 -16 -1
-5 8 -1 19 9 12 11 21 14 21 9 0 -6 11 -10 24 -9 13 0 22 4 19 9 -9 15 10 6
23 -10 13 -17 14 -17 7 1 -3 11 -2 17 3 14 5 -3 18 6 28 20 11 14 14 22 8 18
-7 -4 -12 -2 -12 3 0 6 6 11 13 11 8 0 7 4 -3 10 -13 9 -13 10 0 10 13 0 13 1
0 10 -13 9 -13 10 0 10 12 0 12 2 1 9 -9 6 -10 11 -2 15 6 4 11 13 11 19 0 7
-4 6 -11 -3 -9 -12 -10 -11 -6 8 3 15 0 22 -9 22 -8 0 -14 4 -14 8 0 4 -9 8
-20 9 -13 1 -18 -2 -13 -10 3 -7 -4 -3 -17 8 -13 11 -21 15 -18 10 4 -6 -6
-10 -23 -10 l-28 -1 19 31 c11 16 27 29 36 28 8 0 13 2 10 5 -3 3 0 12 7 21
11 14 10 14 -6 2 -16 -13 -17 -12 -7 13 5 15 6 25 1 22 -12 -7 -33 19 -23 28
4 4 0 6 -8 4 -9 -2 -14 3 -12 12 2 8 1 12 -3 8 -8 -8 -46 23 -40 33 3 3 -7 7
-20 7 -14 0 -25 -4 -25 -9 0 -5 -5 -9 -11 -9 -5 0 -7 5 -3 12 4 7 3 8 -4 4 -7
-4 -12 -13 -12 -20 0 -8 -7 -19 -15 -26 -13 -11 -18 -11 -28 0 -10 10 -8 12 6
7 10 -4 16 -3 12 2 -3 5 1 12 7 15 7 3 1 3 -13 0 -22 -5 -25 -2 -23 18 1 13 3
29 3 36 1 7 6 10 13 6 7 -4 8 -3 4 5 -4 6 -12 9 -17 6 -5 -4 -9 3 -9 15 0 17
-4 20 -21 15 -15 -5 -19 -4 -15 4 8 12 -21 11 -41 -2 -7 -4 -16 0 -22 10 -10
17 -10 17 -11 -2 0 -17 -2 -17 -10 -5 -9 13 -10 13 -10 0 0 -13 -1 -13 -10 0
-8 12 -10 12 -16 -3 -3 -9 -10 -14 -15 -11 -5 3 -9 1 -9 -5 0 -5 5 -13 10 -16
7 -4 6 -13 -1 -26 -6 -12 -8 -23 -5 -26 3 -3 1 -14 -4 -24 -8 -13 -6 -20 7
-28 17 -10 17 -10 1 -11 -10 0 -18 -5 -18 -11 0 -5 5 -7 10 -4 13 8 13 -1 0
-25 -7 -13 -7 -21 2 -26 7 -5 8 -3 3 6 -5 9 -4 11 4 6 9 -6 9 -11 1 -21 -7 -8
-9 -18 -7 -23 3 -4 2 -14 -3 -22 -6 -10 -3 -21 7 -33 16 -17 16 -17 0 -11 -13
5 -16 2 -10 -12 5 -13 3 -15 -7 -9 -10 6 -12 3 -7 -14 3 -13 3 -20 0 -17 -3 3
-14 -5 -25 -17 -11 -12 -17 -17 -14 -11 3 6 -1 11 -8 11 -8 0 -12 -7 -8 -15 3
-10 1 -13 -7 -8 -6 4 -11 4 -10 -1 4 -23 -2 -32 -18 -26 -11 4 -14 3 -9 -5 4
-7 2 -12 -4 -12 -6 0 -8 -5 -4 -12 5 -8 2 -9 -9 -5 -9 3 -16 2 -14 -3 1 -5 -7
-16 -18 -25 -11 -9 -14 -14 -8 -10 8 4 11 1 7 -9 -3 -9 -11 -14 -17 -13 -7 1
-11 -4 -9 -10 1 -7 -5 -13 -14 -13 -8 0 -12 -5 -9 -11 4 -6 -1 -17 -11 -25
-11 -9 -12 -12 -4 -8 12 6 13 4 3 -7 -7 -7 -13 -21 -13 -31 0 -10 -6 -21 -14
-24 -8 -3 -12 -12 -9 -20 3 -8 0 -21 -7 -29 -6 -8 -9 -19 -5 -25 3 -5 -2 -10
-12 -10 -10 0 -14 -4 -8 -8 16 -11 14 -42 -2 -42 -8 0 -11 -5 -8 -10 4 -6 1
-18 -7 -27 -7 -10 -8 -14 -1 -10 8 5 8 1 0 -17 -7 -13 -16 -22 -22 -18 -5 3
-4 -1 3 -10 15 -18 0 -34 -20 -22 -10 5 -10 4 -1 -6 10 -11 9 -16 -5 -26 -9
-8 -25 -14 -35 -14 -10 0 -16 -4 -13 -9 3 -4 -5 -8 -17 -7 -12 1 -25 -3 -29
-9 -5 -6 -8 -3 -8 7 0 9 -6 19 -12 22 -10 5 -10 7 0 12 6 3 9 11 5 17 -12 19
-9 41 7 55 13 10 13 12 0 10 -17 -3 -20 19 -7 46 6 13 6 16 -2 12 -6 -4 -11
-2 -11 3 0 6 6 11 13 11 8 0 8 3 2 8 -16 10 -17 54 -2 45 9 -5 9 -3 1 8 -12
16 -12 29 0 48 7 10 6 12 -3 6 -9 -5 -11 1 -8 24 3 19 1 31 -6 31 -6 0 -2 6 8
14 17 12 17 16 6 30 -8 9 -11 19 -8 23 4 3 2 15 -4 26 -8 14 -8 18 0 13 6 -4
11 0 11 9 0 9 -4 14 -8 11 -4 -2 -8 4 -8 15 0 10 3 19 7 19 3 0 3 18 -1 40 -4
22 -4 40 0 40 4 0 5 12 2 26 -3 16 1 30 9 36 11 8 10 9 -3 4 -21 -6 -23 4 -5
23 10 12 9 13 -7 7 -16 -5 -17 -4 -7 8 7 9 11 30 8 50 -2 19 0 39 5 44 6 6 5
12 -3 17 -8 6 -10 4 -4 -5 5 -9 4 -11 -3 -6 -9 5 -9 13 -2 26 7 13 7 21 0 25
-8 5 -8 11 0 20 6 7 7 16 2 19 -11 6 -9 57 3 75 5 10 4 12 -3 7 -8 -5 -11 3
-8 23 2 17 -2 36 -9 41 -7 6 -12 22 -10 35 1 14 -2 25 -7 25 -6 0 -8 7 -4 15
3 8 1 15 -4 15 -6 0 -10 7 -10 15 0 9 -7 28 -16 43 -15 25 -15 25 0 8 9 -11
16 -15 16 -8 0 7 -9 17 -20 24 -22 14 -28 33 -7 23 6 -4 4 0 -5 8 -20 16 -25
32 -6 21 7 -4 8 -3 4 4 -4 7 -14 12 -23 12 -12 0 -13 3 -4 14 9 11 9 16 0 22
-8 4 -9 3 -5 -4 4 -7 2 -12 -5 -12 -6 0 -9 8 -6 20 3 11 2 18 -3 15 -4 -3 -14
3 -21 12 -12 14 -12 16 1 9 12 -6 11 -4 -1 6 -9 7 -14 19 -11 27 3 8 0 11 -6
8 -5 -4 -15 0 -22 8 -7 8 -9 15 -6 15 4 0 -6 13 -21 28 -15 16 -35 38 -43 50
-8 12 -20 22 -27 22 -7 0 -10 7 -7 15 5 11 2 13 -10 9 -12 -5 -15 -2 -9 12 4
12 3 15 -6 9 -8 -5 -23 4 -42 24 -16 18 -33 29 -39 26 -5 -3 -10 1 -10 9 0 9
-4 16 -10 16 -5 0 -25 14 -44 30 -23 21 -37 27 -42 19 -5 -8 -9 -7 -16 5 -5 9
-13 14 -19 11 -5 -4 -9 0 -9 8 0 8 -10 13 -22 13 -13 -1 -22 4 -21 11 2 7 -4
10 -12 7 -8 -4 -27 2 -41 11 -18 12 -24 13 -19 4 3 -8 0 -6 -8 4 -10 12 -17
15 -22 7 -5 -8 -12 -7 -23 3 -10 8 -25 13 -34 12 -11 -2 -18 3 -19 13 0 11 -2
12 -6 5 -3 -10 -10 -10 -25 -2 -15 8 -19 8 -14 0 5 -8 0 -8 -16 -2 -13 5 -35
7 -50 5 -16 -1 -28 2 -28 7 0 5 -9 9 -21 9 -11 0 -17 -4 -14 -10 9 -15 -2 -12
-19 6 -9 8 -16 12 -16 7z m501 -150 c13 -16 12 -17 -3 -4 -10 7 -18 15 -18 17
0 8 8 3 21 -13z m-885 -765 c-4 6 -3 12 3 12 5 0 13 -5 16 -10 5 -8 11 -7 21
1 10 8 14 8 14 0 0 -6 3 -10 8 -9 14 4 52 -13 52 -23 0 -6 5 -7 10 -4 6 3 10
0 10 -8 0 -8 7 -18 16 -21 9 -3 12 -11 8 -18 -5 -8 0 -7 11 2 10 8 16 10 12 3
-5 -7 -1 -23 8 -36 8 -13 12 -27 8 -30 -3 -4 0 -7 7 -7 7 0 10 -3 7 -6 -3 -4
-1 -16 5 -28 10 -19 10 -20 -6 -7 -14 12 -16 12 -10 -3 5 -12 2 -15 -10 -10
-9 3 -16 9 -16 13 0 3 -20 6 -44 6 -24 0 -42 -3 -40 -7 6 -10 -28 -26 -44 -21
-7 3 -12 1 -11 -4 4 -21 -2 -33 -17 -33 -8 0 -13 -4 -9 -9 3 -5 1 -12 -5 -16
-6 -4 -8 -10 -5 -15 3 -5 1 -11 -5 -15 -6 -4 -7 -11 -4 -17 4 -6 0 -15 -7 -20
-11 -8 -10 -9 4 -4 12 4 17 0 17 -14 0 -10 7 -26 16 -34 8 -9 11 -16 5 -16 -6
0 -2 -9 9 -20 11 -11 23 -19 28 -18 4 1 17 -3 28 -10 12 -6 24 -9 27 -5 3 3
13 -1 21 -10 17 -17 11 -27 -15 -27 -10 0 -22 -7 -27 -17 -6 -10 -16 -14 -26
-10 -9 4 -15 3 -12 -2 3 -5 -1 -11 -8 -14 -8 -3 -17 -1 -20 6 -3 9 -8 8 -15
-3 -7 -10 -14 -11 -18 -5 -5 6 -19 12 -31 12 -13 1 -32 11 -42 22 -9 12 -21
21 -25 21 -16 0 -56 53 -51 67 4 9 2 11 -6 7 -8 -5 -9 -2 -5 9 4 10 2 16 -5
14 -6 -1 -13 4 -16 12 -2 8 0 11 5 8 5 -3 10 0 10 8 0 8 -3 14 -6 13 -19 -2
-24 4 -11 12 11 7 11 10 2 10 -7 0 -10 5 -7 10 3 6 0 10 -7 10 -9 0 -9 3 2 10
10 6 11 10 3 10 -7 0 -13 5 -13 11 0 5 4 8 8 5 4 -2 8 4 8 14 0 10 -4 16 -8
14 -10 -6 -10 -1 -2 20 3 9 10 14 14 11 5 -3 5 8 0 24 -6 22 -4 33 6 42 8 6
12 14 10 17 -3 2 5 13 17 24 12 11 16 17 10 13 -7 -3 -13 -1 -13 4 0 6 7 11
16 11 8 0 13 4 9 9 -3 5 4 12 15 16 11 3 25 15 31 26 5 11 14 17 20 14 5 -4 9
-1 9 4 0 6 5 11 11 11 5 0 7 -6 4 -12 -3 -7 0 -5 7 4 10 13 15 14 27 5 12 -9
13 -9 7 1z m708 0 c-4 -5 3 -4 15 4 16 9 23 10 32 1 9 -9 18 -9 32 -2 13 7 17
8 13 1 -3 -6 3 -12 14 -14 12 -2 19 -6 18 -9 -6 -13 26 -40 41 -34 8 3 12 3 8
-1 -3 -4 3 -15 14 -25 11 -9 21 -27 22 -38 1 -12 5 -21 10 -21 5 0 7 -6 4 -14
-3 -8 0 -17 7 -19 9 -4 13 -30 14 -88 0 -87 -4 -112 -19 -103 -5 3 -6 -2 -3
-11 4 -8 1 -22 -6 -30 -6 -8 -8 -20 -4 -26 4 -7 3 -9 -3 -6 -6 4 -13 -3 -16
-14 -4 -14 -11 -20 -20 -16 -9 3 -14 -1 -13 -11 0 -10 -6 -16 -16 -16 -11 1
-14 -4 -11 -14 4 -10 2 -13 -5 -8 -7 4 -12 1 -13 -6 0 -10 -2 -10 -6 -1 -3 10
-8 9 -19 -2 -15 -14 -44 -10 -44 6 0 5 -5 9 -11 9 -5 0 -7 -5 -3 -12 4 -7 -7
-2 -24 11 -18 12 -32 19 -32 15 0 -4 -6 1 -14 11 -12 17 -12 21 2 31 9 7 23 9
31 6 9 -3 12 -1 7 6 -3 6 3 13 14 17 11 4 18 11 15 16 -4 5 -1 9 5 9 6 0 8 5
4 12 -5 8 -1 9 12 4 15 -6 17 -5 7 5 -14 14 -18 33 -5 25 4 -2 8 4 8 14 0 10
-4 16 -8 14 -13 -8 -9 11 5 25 7 9 7 11 1 8 -13 -8 -27 20 -18 34 3 5 -2 9
-10 9 -10 0 -13 7 -11 21 4 17 2 19 -10 9 -8 -7 -15 -8 -15 -3 0 5 -7 18 -15
29 -15 19 -15 19 -8 -1 6 -20 6 -20 -15 -1 -17 15 -22 16 -23 5 0 -10 -2 -11
-6 -1 -2 6 -11 12 -19 12 -8 0 -14 -6 -14 -12 0 -8 -3 -9 -8 -3 -9 13 -35 19
-28 6 4 -5 2 -12 -4 -16 -5 -3 -10 -1 -10 4 0 6 -5 11 -11 11 -5 0 -7 -6 -3
-12 4 -7 3 -9 -1 -5 -12 10 -15 38 -4 31 8 -4 11 8 8 32 0 3 9 14 21 24 15 13
17 19 8 23 -8 3 -6 6 5 6 10 1 16 4 14 9 -7 10 19 32 29 24 4 -4 5 0 1 10 -8
22 3 30 21 15 10 -8 13 -8 9 -1 -8 13 19 27 34 19 5 -4 6 0 3 8 -3 8 1 14 10
14 8 0 13 -4 10 -9z m676 -518 c0 -5 -2 -10 -4 -10 -3 0 -8 5 -11 10 -3 6 -1
10 4 10 6 0 11 -4 11 -10z m-1006 -341 c11 9 16 10 16 2 0 -13 22 -10 32 4 5
7 8 6 8 0 0 -6 10 -12 22 -12 13 -1 24 -7 26 -12 2 -5 10 -7 18 -4 7 3 17 -2
20 -11 3 -9 10 -13 15 -10 5 3 20 -6 33 -20 13 -14 30 -26 37 -27 11 0 12 -2
1 -6 -10 -4 -7 -9 10 -17 12 -7 22 -20 22 -30 -1 -9 0 -15 4 -12 9 9 31 -27
32 -51 0 -13 5 -23 10 -23 14 0 12 -33 -2 -50 -10 -11 -9 -11 6 0 18 14 19 13
14 -7 -4 -14 -2 -23 5 -23 8 0 7 -4 -2 -9 -9 -6 -10 -10 -2 -16 9 -5 9 -10 1
-20 -6 -7 -10 -17 -9 -21 1 -5 0 -12 -1 -16 -1 -5 -3 -14 -4 -20 -1 -7 -8 -12
-14 -10 -10 2 -10 -3 -1 -19 8 -15 8 -19 0 -15 -6 4 -11 3 -11 -2 0 -6 -7 -13
-16 -16 -8 -3 -13 -2 -10 3 3 5 -2 15 -11 22 -14 12 -16 12 -8 -1 6 -12 5 -12
-5 -3 -7 6 -19 9 -26 6 -9 -3 -14 2 -15 13 0 11 -3 14 -6 7 -3 -10 -10 -10
-26 -1 -19 10 -20 9 -10 -4 11 -13 8 -15 -17 -13 -16 1 -27 -2 -25 -6 8 -12
-6 -39 -17 -33 -7 4 -7 0 0 -12 13 -25 4 -86 -12 -77 -6 3 -6 0 2 -8 17 -19
15 -32 -4 -25 -14 5 -15 4 -5 -8 10 -12 8 -14 -13 -12 -15 2 -26 -2 -27 -8 0
-6 -4 -2 -9 9 -6 15 -9 16 -9 4 -1 -13 -9 -15 -44 -9 -23 3 -49 10 -56 15 -10
5 -12 4 -7 -3 4 -7 2 -12 -3 -12 -6 0 -11 3 -11 8 0 4 -10 13 -21 21 -19 11
-21 11 -16 -3 6 -15 4 -14 -18 1 -13 10 -25 23 -25 30 0 7 -7 10 -17 6 -13 -5
-15 -2 -10 11 4 10 3 15 -3 11 -6 -3 -10 -2 -10 4 0 5 -9 13 -21 16 -17 6 -18
9 -7 23 7 9 9 13 3 10 -5 -3 -16 0 -23 8 -10 11 -10 14 0 15 7 0 3 4 -9 9 -15
6 -21 16 -19 34 2 14 0 23 -4 21 -5 -3 -11 2 -14 11 -3 8 -2 12 4 9 6 -3 10
-1 10 4 0 6 -5 11 -11 11 -7 0 -9 10 -5 26 4 16 3 23 -3 19 -11 -6 -9 5 6 43
4 9 8 26 9 37 1 11 2 26 3 33 0 7 5 11 10 8 5 -4 7 2 4 13 -3 11 2 21 12 25 9
3 13 10 10 16 -3 5 -1 10 5 10 6 0 8 5 5 10 -3 6 1 13 9 16 9 3 16 13 16 21 0
8 5 11 10 8 6 -3 10 -1 10 4 0 6 7 11 16 11 8 0 12 5 9 10 -3 6 -1 10 6 10 7
0 21 8 31 17 18 16 44 23 90 24 10 0 21 5 24 11 4 7 9 6 14 -3 7 -10 11 -10
24 0z m-934 -2004 c-7 -9 -15 -13 -19 -10 -3 3 1 10 9 15 21 14 24 12 10 -5z"/>
<path d="M1435 2840 c-3 -6 1 -7 9 -4 18 7 21 14 7 14 -6 0 -13 -4 -16 -10z"/>
<path d="M1730 2520 c0 -5 5 -10 11 -10 5 0 7 5 4 10 -3 6 -8 10 -11 10 -2 0
-4 -4 -4 -10z"/>
<path d="M2296 2533 c-6 -14 -5 -15 5 -6 7 7 10 15 7 18 -3 3 -9 -2 -12 -12z"/>
<path d="M1856 2112 c-3 -5 1 -9 9 -9 8 0 12 4 9 9 -3 4 -7 8 -9 8 -2 0 -6 -4
-9 -8z"/>
<path d="M1708 1693 c7 -3 16 -2 19 1 4 3 -2 6 -13 5 -11 0 -14 -3 -6 -6z"/>
<path d="M3459 3003 c-13 -16 -12 -17 4 -4 16 13 21 21 13 21 -2 0 -10 -8 -17
-17z"/>
<path d="M975 2200 c-3 -6 1 -7 9 -4 18 7 21 14 7 14 -6 0 -13 -4 -16 -10z"/>
<path d="M2150 239 c0 -5 5 -7 10 -4 6 3 10 8 10 11 0 2 -4 4 -10 4 -5 0 -10
-5 -10 -11z"/>
<path d="M2330 220 c0 -5 5 -10 11 -10 5 0 7 5 4 10 -3 6 -8 10 -11 10 -2 0
-4 -4 -4 -10z"/>
</g>
</svg>
